<?xml version="1.0" encoding="utf-8"?>
<!-- Generator: Adobe Illustrator 27.5.0, SVG Export Plug-In . SVG Version: 6.00 Build 0)  -->
<svg version="1.1" xmlns="http://www.w3.org/2000/svg" xmlns:xlink="http://www.w3.org/1999/xlink" x="0px" y="0px"
	 viewBox="0 0 500 500" style="enable-background:new 0 0 500 500;" xml:space="preserve">
<g id="Layer_1">
	<rect style="fill:#278489;" width="500" height="500"/>
</g>
<g id="Layer_2">
	<g>
		<path style="fill:#0E5A7C;" d="M334.134,416.396c-1.448,2.884-34.146-10.608-73.032-30.134s-69.236-37.694-67.788-40.578
			c1.448-2.884,34.146,10.608,73.032,30.134C305.233,395.345,335.583,413.512,334.134,416.396z"/>
		
			<ellipse transform="matrix(0.4487 -0.8937 0.8937 0.4487 -184.2897 570.9465)" style="fill:#0E5A7C;" cx="370.649" cy="434.853" rx="10.579" ry="30.596"/>
		
			<ellipse transform="matrix(0.4022 -0.9155 0.9155 0.4022 -273.9081 383.3713)" style="fill:#0E5A7C;" cx="156.634" cy="401.446" rx="30.754" ry="66.654"/>
	</g>
	<g>
		<g>
			<g>
				<path style="fill:#5FB7B8;" d="M403.601,119.192v65.81c0,3.95-1.3,7.67-3.55,10.68c-2.105,2.817-5.054,5.02-8.534,6.208
					c-0.002,0.001-0.004,0.001-0.005,0.002c-0.99,0.27-1.98,0.51-2.98,0.73c-6.68,1.5-13.52,1.94-20.26,1.36
					c-7.93-0.69-15.74-2.81-23.04-6.32l-5.96-2.87l-67.851-32.625c-14.664-7.051-23.989-21.882-23.989-38.152V44.082l119.33,57.39
					L403.601,119.192z"/>
				<path style="fill:#4A9E9C;" d="M271.061,161.99c-14.45-7.12-23.63-21.84-23.63-37.98V44.08l16.33,7.85v84.37
					C263.761,145.56,266.381,154.41,271.061,161.99z"/>
				<path style="fill:#75D3D1;" d="M403.601,119.19V185c0,3.95-1.3,7.67-3.55,10.68c-2.1,2.82-5.05,5.02-8.53,6.21
					c-0.01,0-0.01,0-0.01,0c-0.99,0.27-1.98,0.51-2.98,0.73c-6.68,1.5-13.52,1.94-20.26,1.36c-3.51-0.31-7-0.89-10.43-1.75
					c5.21,0,10.44-0.57,15.57-1.72c1.07-0.23,2.13-0.49,3.18-0.77c0.01-0.01,0.01-0.01,0.01-0.01c3.71-1.26,6.86-3.62,9.11-6.62
					c2.4-3.21,3.78-7.18,3.78-11.4V112.4L403.601,119.19z"/>
			</g>
			<g>
				<path style="fill:#0E5A7C;" d="M388.531,202.62c-6.4,1.44-12.94,1.9-19.4,1.43c-0.29-0.02-0.57-0.05-0.86-0.07
					c-7.93-0.69-15.74-2.81-23.04-6.32l-5.96-2.86v-17.32c0-4.85,2.42-9.29,6.29-11.95c0.96-0.66,2.02-1.22,3.15-1.64
					c1.69-0.63,3.41-0.93,5.08-0.93c6.47,0,12.31,4.41,13.99,10.76v0.01c0.32,1.19,0.49,2.44,0.49,3.75v7.48
					c0,7.44,4.49,14.31,11.49,16.83C382.491,202.78,385.481,203.11,388.531,202.62z"/>
				<path style="fill:#054568;" d="M369.131,204.05c-0.29-0.02-0.57-0.05-0.86-0.07c-7.93-0.69-15.74-2.81-23.04-6.32l-5.96-2.86
					v-17.32c0-4.85,2.42-9.29,6.29-11.95c5.68,0.77,10.59,4.92,12.1,10.64v0.01c0.32,1.19,0.49,2.44,0.49,3.75v7.48
					C358.151,194.67,362.421,201.39,369.131,204.05z"/>
			</g>
			<g>
				<path style="fill:#ABF4EE;" d="M368.271,176.702v0.78c0-1.31-0.17-2.56-0.49-3.75v-0.01c-1.68-6.35-7.52-10.76-13.99-10.76
					c-1.67,0-3.39,0.3-5.08,0.93c-5.67,2.11-9.44,7.53-9.44,13.59v220.94l-111.65-53.69c-14.27-6.87-23.35-21.3-23.35-37.14v-189.1
					c0-7.56,3.13-14.88,8.9-19.76c7.8-6.6,18.52-7.8,27.38-3.54l6.88,3.31l102.74,49.41
					C361.231,153.232,368.271,164.422,368.271,176.702z"/>
				<path style="fill:#80CEC8;" d="M238.241,94.22c-3.01,1.05-5.88,2.67-8.45,4.85c-6.1,5.16-9.41,12.89-9.41,20.88v199.78
					c0,9.34,2.99,18.21,8.25,25.49l-1.01-0.49c-14.27-6.87-23.35-21.3-23.35-37.14v-189.1c0-7.56,3.13-14.88,8.9-19.76
					C220.301,92.7,229.881,91.18,238.241,94.22z"/>
				<path style="fill:#C0FFF9;" d="M368.271,176.7v0.78c0-1.31-0.17-2.56-0.49-3.75v-0.01c-1.68-6.35-7.52-10.76-13.99-10.76
					c-1.67,0-3.39,0.3-5.08,0.93c-5.67,2.11-9.44,7.53-9.44,13.59v220.94l-12.47-6V174.3c0-10.07,7.15-18.73,17.05-20.61l11.98-2.29
					C363.571,157.37,368.271,166.67,368.271,176.7z"/>
			</g>
		</g>
		<g>
			<g>
				<g>
					<g>
						<g>
							<path style="fill:#4FA3A0;" d="M292.749,163.407c-0.202,0-0.406-0.044-0.601-0.138l-78.065-37.54
								c-0.691-0.332-0.982-1.161-0.649-1.852c0.332-0.691,1.16-0.982,1.852-0.649l78.065,37.54c0.69,0.332,0.982,1.161,0.649,1.852
								C293.762,163.117,293.266,163.407,292.749,163.407z"/>
						</g>
						<g>
							<path style="fill:#4FA3A0;" d="M292.749,177.098c-0.202,0-0.406-0.044-0.601-0.138l-78.065-37.54
								c-0.691-0.332-0.982-1.161-0.649-1.852c0.332-0.691,1.16-0.982,1.852-0.649l78.065,37.539
								c0.69,0.332,0.982,1.161,0.649,1.852C293.762,176.808,293.266,177.098,292.749,177.098z"/>
						</g>
						<g>
							<path style="fill:#4FA3A0;" d="M263.747,176.733c-0.202,0-0.406-0.044-0.601-0.138l-49.062-23.593
								c-0.691-0.332-0.982-1.161-0.649-1.852c0.332-0.691,1.16-0.982,1.852-0.649l49.062,23.593
								c0.69,0.332,0.981,1.161,0.649,1.852C264.759,176.443,264.263,176.733,263.747,176.733z"/>
						</g>
					</g>
				</g>
				<g>
					<g>
						<path style="fill:#4FA3A0;" d="M325.408,203.395c-0.205,0-0.411-0.045-0.602-0.137l-20.996-10.096
							c-0.48-0.231-0.786-0.717-0.786-1.25v-27.273c0-0.477,0.245-0.921,0.649-1.175c0.405-0.254,0.91-0.282,1.34-0.076
							l20.996,10.096c0.48,0.231,0.786,0.717,0.786,1.251v27.273c0,0.477-0.245,0.921-0.649,1.175
							C325.922,203.324,325.666,203.395,325.408,203.395z M305.801,191.039l18.22,8.762v-24.193l-18.22-8.762V191.039z"/>
					</g>
				</g>
				<g>
					<g>
						<g>
							<path style="fill:#4FA3A0;" d="M292.749,215.397c-0.202,0-0.406-0.044-0.601-0.138l-78.065-37.54
								c-0.691-0.332-0.982-1.161-0.649-1.852c0.332-0.691,1.16-0.982,1.852-0.649l78.065,37.54c0.69,0.332,0.982,1.161,0.649,1.852
								C293.762,215.107,293.266,215.397,292.749,215.397z"/>
						</g>
						<g>
							<path style="fill:#4FA3A0;" d="M292.749,229.088c-0.202,0-0.406-0.045-0.601-0.138l-78.065-37.54
								c-0.691-0.332-0.982-1.161-0.649-1.852c0.332-0.691,1.16-0.982,1.852-0.649l78.065,37.54c0.69,0.332,0.982,1.161,0.649,1.852
								C293.762,228.798,293.266,229.088,292.749,229.088z"/>
						</g>
						<g>
							<path style="fill:#4FA3A0;" d="M263.747,228.723c-0.202,0-0.406-0.044-0.601-0.138l-49.062-23.593
								c-0.691-0.332-0.982-1.161-0.649-1.852c0.332-0.691,1.16-0.982,1.852-0.649l49.062,23.593
								c0.69,0.332,0.981,1.161,0.649,1.852C264.759,228.434,264.263,228.723,263.747,228.723z"/>
						</g>
					</g>
				</g>
				<g>
					<g>
						<path style="fill:#4FA3A0;" d="M325.408,255.385c-0.205,0-0.411-0.045-0.602-0.137l-20.996-10.096
							c-0.48-0.231-0.786-0.717-0.786-1.25v-27.273c0-0.477,0.245-0.921,0.649-1.175c0.405-0.254,0.91-0.282,1.34-0.076
							l20.996,10.096c0.48,0.231,0.786,0.717,0.786,1.25v27.273c0,0.477-0.245,0.921-0.649,1.175
							C325.922,255.314,325.666,255.385,325.408,255.385z M305.801,243.029l18.22,8.762v-24.193l-18.22-8.762V243.029z"/>
					</g>
				</g>
				<g>
					<g>
						<g>
							<path style="fill:#4FA3A0;" d="M292.749,268.164c-0.202,0-0.406-0.044-0.601-0.138l-78.065-37.54
								c-0.691-0.332-0.982-1.161-0.649-1.852c0.332-0.691,1.16-0.982,1.852-0.649l78.065,37.54c0.69,0.332,0.982,1.161,0.649,1.852
								C293.762,267.874,293.266,268.164,292.749,268.164z"/>
						</g>
						<g>
							<path style="fill:#4FA3A0;" d="M292.749,281.855c-0.202,0-0.406-0.045-0.601-0.138l-78.065-37.54
								c-0.691-0.332-0.982-1.161-0.649-1.852c0.332-0.691,1.16-0.982,1.852-0.649l78.065,37.54c0.69,0.332,0.982,1.161,0.649,1.852
								C293.762,281.565,293.266,281.855,292.749,281.855z"/>
						</g>
						<g>
							<path style="fill:#4FA3A0;" d="M263.747,281.49c-0.202,0-0.406-0.044-0.601-0.138l-49.062-23.593
								c-0.691-0.332-0.982-1.161-0.649-1.852c0.332-0.691,1.16-0.982,1.852-0.649l49.062,23.593
								c0.69,0.332,0.981,1.161,0.649,1.852C264.759,281.2,264.263,281.49,263.747,281.49z"/>
						</g>
					</g>
				</g>
				<g>
					<g>
						<path style="fill:#4FA3A0;" d="M325.408,308.152c-0.205,0-0.411-0.045-0.602-0.137l-20.996-10.096
							c-0.48-0.231-0.786-0.717-0.786-1.25v-27.273c0-0.477,0.245-0.921,0.649-1.175c0.405-0.254,0.91-0.282,1.34-0.076
							l20.996,10.096c0.48,0.231,0.786,0.717,0.786,1.25v27.273c0,0.477-0.245,0.921-0.649,1.175
							C325.922,308.081,325.666,308.152,325.408,308.152z M305.801,295.795l18.22,8.762v-24.193l-18.22-8.762V295.795z"/>
					</g>
				</g>
				<g>
					<g>
						<g>
							<path style="fill:#4FA3A0;" d="M292.749,320.154c-0.202,0-0.406-0.044-0.601-0.138l-78.065-37.54
								c-0.691-0.332-0.982-1.161-0.649-1.852c0.332-0.691,1.16-0.982,1.852-0.649l78.065,37.54c0.69,0.332,0.982,1.161,0.649,1.852
								C293.762,319.864,293.266,320.154,292.749,320.154z"/>
						</g>
						<g>
							<path style="fill:#4FA3A0;" d="M292.749,333.845c-0.202,0-0.406-0.044-0.601-0.138l-78.065-37.539
								c-0.691-0.332-0.982-1.161-0.649-1.852c0.332-0.691,1.16-0.982,1.852-0.649l78.065,37.54c0.69,0.332,0.982,1.161,0.649,1.852
								C293.762,333.555,293.266,333.845,292.749,333.845z"/>
						</g>
						<g>
							<path style="fill:#4FA3A0;" d="M263.747,333.48c-0.202,0-0.406-0.044-0.601-0.138l-49.062-23.593
								c-0.691-0.332-0.982-1.161-0.649-1.852c0.332-0.691,1.16-0.982,1.852-0.649l49.062,23.593
								c0.69,0.332,0.981,1.161,0.649,1.852C264.759,333.19,264.263,333.48,263.747,333.48z"/>
						</g>
					</g>
				</g>
				<g>
					<g>
						<path style="fill:#4FA3A0;" d="M325.408,360.142c-0.205,0-0.411-0.045-0.602-0.137l-20.996-10.096
							c-0.48-0.231-0.786-0.717-0.786-1.251v-27.273c0-0.477,0.245-0.921,0.649-1.175c0.405-0.254,0.91-0.282,1.34-0.076
							l20.996,10.096c0.48,0.231,0.786,0.717,0.786,1.25v27.273c0,0.477-0.245,0.921-0.649,1.175
							C325.922,360.071,325.666,360.142,325.408,360.142z M305.801,347.785l18.22,8.762v-24.193l-18.22-8.762V347.785z"/>
					</g>
				</g>
				<g>
					<g>
						<g>
							<g>
								<path style="fill:#FC4250;" d="M309.521,194.737c-0.234,0-0.47-0.041-0.695-0.125c-0.564-0.209-1.003-0.66-1.197-1.229
									l-3.25-9.521c-0.357-1.045,0.201-2.182,1.246-2.539c1.051-0.359,2.183,0.201,2.539,1.247l2.458,7.2l20.636-12.135
									c0.952-0.558,2.179-0.242,2.737,0.711c0.561,0.952,0.242,2.178-0.71,2.738l-22.75,13.378
									C310.224,194.644,309.873,194.737,309.521,194.737z"/>
							</g>
						</g>
						<g>
							<g>
								<path style="fill:#FC4250;" d="M309.521,248.004c-0.234,0-0.47-0.041-0.695-0.125c-0.564-0.209-1.003-0.66-1.197-1.229
									l-3.25-9.521c-0.357-1.045,0.201-2.182,1.246-2.539c1.051-0.359,2.183,0.201,2.539,1.247l2.458,7.2l20.636-12.136
									c0.952-0.558,2.179-0.242,2.737,0.71c0.561,0.952,0.242,2.178-0.71,2.738l-22.75,13.378
									C310.224,247.911,309.873,248.004,309.521,248.004z"/>
							</g>
						</g>
					</g>
				</g>
			</g>
		</g>
	</g>
	<g>
		<g>
			<g>
				<path style="fill:#FFC569;" d="M115.326,251.768l98.105-18.961v56.667l-92.099,7.018c-13.12,1-24.317-9.376-24.317-22.535l0,0
					C97.015,263.129,104.695,253.822,115.326,251.768z"/>
				<path style="fill:#FABC4B;" d="M213.435,263.721v25.75l-92.1,7.02c-13.12,1-24.32-9.38-24.32-22.53c0-4.75,1.48-9.2,4.02-12.88
					c4.41,6.34,11.97,10.3,20.3,9.66L213.435,263.721z"/>
				<path style="fill:#F7B141;" d="M213.435,277.361v12.11l-92.1,7.02c-13.12,1-24.32-9.38-24.32-22.53c0-2.09,0.29-4.12,0.83-6.06
					c2.79,10.12,12.46,17.32,23.49,16.48L213.435,277.361z"/>
			</g>
			<g>
				<path style="fill:#FDA6A9;" d="M223.405,236.787l-9.97-3.98c-1.77,0-3.49,0.34-5.12,0.99c-8.28,3.26-14.38,14.27-14.38,27.34
					c0,15.65,8.73,28.34,19.5,28.34l15.06-10.33l26.27-18.01v-11.83L223.405,236.787z"/>
				<path style="fill:#F28B92;" d="M254.765,255.221v5.92l-26.27,18.01l-15.06,10.33c-9.82,0-17.95-10.56-19.3-24.29
					L254.765,255.221z"/>
				<path style="fill:#DD6F79;" d="M254.765,257.391v3.75l-26.27,18.01l-15.06,10.33c-6.27,0-11.84-4.3-15.41-10.97L254.765,257.391
					z"/>
			</g>
			<g>
				<path style="fill:#0A4775;" d="M254.765,261.14l15.001-4.008c1.547-0.413,2.624-1.815,2.624-3.417l0,0
					c0-1.869-1.454-3.415-3.32-3.53l-14.305-0.879C254.765,249.307,251.765,253.473,254.765,261.14z"/>
				<path style="fill:#06345B;" d="M272.385,253.711c0,1.61-1.07,3.01-2.62,3.42l-15,4.01c-0.84-2.15-1.21-4.02-1.3-5.61l14.68-3.91
					c0.76-0.21,1.41-0.65,1.87-1.25c0.55,0.2,1.03,0.51,1.41,0.92C272.025,251.931,272.385,252.781,272.385,253.711z"/>
				<path style="fill:#03213D;" d="M272.385,253.711c0,1.61-1.07,3.01-2.62,3.42l-15,4.01c-0.46-1.17-0.77-2.25-0.98-3.25
					l13.73-3.67c1.55-0.41,2.62-1.81,2.62-3.41c0-0.13-0.01-0.27-0.03-0.4c0.51,0.19,0.96,0.5,1.32,0.88
					C272.025,251.931,272.385,252.781,272.385,253.711z"/>
			</g>
		</g>
		<g>
			<g>
				<g>
					<path style="fill:#06345B;" d="M130.688,380.181c0,0-3.117,3.73-3.762,13.129c-0.18,2.626,1.544,5.01,4.096,5.654
						c5.894,1.487,17.228,3.639,29.094,2.082c2.179-0.286,3.842-2.085,4.02-4.275c0.009-0.107,0.016-0.215,0.021-0.324
						c0.097-1.953-1.135-3.72-2.952-4.442c-3.637-1.445-10.323-4.574-11.481-8.419C149.725,383.586,136.994,392.466,130.688,380.181
						z"/>
					<path style="fill:#03213D;" d="M163.954,397.724c-0.505,1.743-1.989,3.075-3.837,3.325c-11.863,1.558-23.202-0.595-29.092-2.09
						c-2.552-0.643-4.275-3.028-4.1-5.651c0.645-9.398,3.768-13.127,3.768-13.127c0.739,1.437,1.561,2.581,2.452,3.491
						c0,0-0.01,0.001,0.001,0.01c-0.404,1.691-0.736,3.736-0.898,6.142c-0.175,2.622,1.549,5.008,4.1,5.651
						C141.996,396.901,152.636,398.933,163.954,397.724z"/>
				</g>
				<g>
					<path style="fill:#3F237C;" d="M134.593,292.313c0,0,1.23,61.09-3.707,86.103c-0.793,4.019,1.468,8.059,5.37,9.306
						c2.139,0.684,4.754,1.005,7.772,0.417c3.269-0.637,5.766-3.295,6.322-6.579c2.23-13.19,6.802-65.001,6.747-91.942
						L134.593,292.313z"/>
					<path style="fill:#2F1A6B;" d="M143.646,386.835c0.762,0.241,1.589,0.445,2.475,0.574c-0.645,0.332-1.348,0.582-2.094,0.73
						c-3.02,0.587-5.631,0.264-7.767-0.419c-3.905-1.244-6.169-5.286-5.378-9.302c4.946-25.014,3.712-86.101,3.712-86.101
						l7.395-0.886c0,0,1.224,61.089-3.712,86.101C137.487,381.548,139.751,385.59,143.646,386.835z"/>
				</g>
			</g>
			<g>
				<g>
					<path style="fill:#06345B;" d="M160.396,403.002c0,0-0.677,2.604-1.039,5.892c-0.556,5.044,2.827,9.657,7.808,10.623
						c8.269,1.605,14.828,2.66,28.818-2.131c2.761-0.946,4.47-3.756,4.07-6.647c-0.01-0.074-0.021-0.148-0.033-0.223
						c-0.425-2.658-2.667-4.659-5.34-4.984c-5.739-0.697-10.475-2.141-16.95-5.237C177.731,400.296,171.454,406.99,160.396,403.002z
						"/>
					<path style="fill:#03213D;" d="M199.712,413.759c-0.634,1.656-1.967,3.029-3.723,3.628c-13.994,4.79-20.558,3.733-28.828,2.13
						c-4.975-0.964-8.358-5.582-7.803-10.621c0.363-3.295,1.039-5.889,1.039-5.889c1.455,0.522,2.826,0.858,4.101,1.052
						c-0.034,0.251-0.068,0.501-0.091,0.764c-0.555,5.039,2.827,9.657,7.803,10.621C180.219,417,186.623,418.039,199.712,413.759z"
						/>
				</g>
				<g>
					<path style="fill:#8537CB;" d="M177.371,289.515c0,0,6.265,72.589,0.36,110.781c-0.408,2.637-2.404,4.747-5.016,5.295
						c-2.402,0.504-5.59,0.714-9.04-0.306c-2.604-0.769-4.428-3.114-4.569-5.826c-0.711-13.683-2.885-75.275-9.708-89.412
						c0,0-10.879-6.264-15.478-22.451L177.371,289.515z"/>
					<path style="fill:#522F8D;" d="M178.001,398.468c-0.085,0.615-0.169,1.23-0.264,1.833c-0.414,2.628-2.409,4.74-5.022,5.289
						c-2.405,0.501-5.588,0.716-9.037-0.307c-2.601-0.768-4.434-3.117-4.566-5.827c-0.714-13.677-2.887-75.273-9.711-89.403
						c0,0-10.882-6.266-15.484-22.451l10.211,0.451c5.167,10.39,12.451,14.584,12.451,14.584c6.823,14.13,8.997,75.726,9.711,89.403
						c0.133,2.71,1.965,5.059,4.566,5.827C173.468,398.635,175.917,398.708,178.001,398.468z"/>
				</g>
			</g>
		</g>
		<g>
			<g>
				<path style="fill:#FDA6A9;" d="M163.705,209.811v11.21c0,3.38-2.74,6.12-6.12,6.12c-3.37,0-6.11-2.74-6.11-6.12v-11.21H163.705z
					"/>
				<path style="fill:#ED7E87;" d="M163.705,209.811v6.68c-1.76,0.48-3.61,0.73-5.52,0.73c-2.35,0-4.6-0.38-6.71-1.1v-6.31H163.705z
					"/>
			</g>
			<g>
				<path style="fill:#FDA6A9;" d="M158.181,213.807L158.181,213.807c-11.644,0-21.083-9.439-21.083-21.083V169.14h42.167v23.583
					C179.265,204.367,169.825,213.807,158.181,213.807z"/>
				<path style="fill:#EF8E95;" d="M170.935,209.511c-3.54,2.7-7.96,4.3-12.75,4.3c-11.65,0-21.09-9.44-21.09-21.09v-23.58h25.51
					v23.58C162.605,199.581,165.875,205.671,170.935,209.511z"/>
				<path style="fill:#06345B;" d="M163.723,188.932c0,0,8.625-1,7.625-13.625h6.75c10.401,0,18.833-8.432,18.833-18.833v-6.167
					c0-6.351-5.149-11.5-11.5-11.5l0,0c-6.351,0-11.5,5.149-11.5,11.5v1.833l-20.666-0.04
					c-12.581-0.024-22.793,10.168-22.793,22.749v13.833c0,13.876,11.249,25.125,25.125,25.125l0,0v-24.875H163.723z"/>
				<path style="fill:#03213D;" d="M193.025,167.961c-3.45,4.47-8.86,7.35-14.93,7.35h-6.75c1,12.62-7.62,13.62-7.62,13.62h-8.13
					v24.88c-13.87,0-25.12-11.25-25.12-25.13v-13.83c0-7.62,3.74-14.36,9.49-18.48c2.39,6.76,8.82,11.59,16.38,11.59H193.025z"/>
				<path style="fill:#EF8E95;" d="M156.41,202.807h5.313v-13.875h-5.313c-3.831,0-6.938,3.106-6.938,6.938l0,0
					C149.473,199.701,152.579,202.807,156.41,202.807z"/>
			</g>
		</g>
		<g>
			<g>
				<path style="fill:#FC4250;" d="M181.025,288.671c-0.08,1.59-0.65,3.09-1.61,4.29c-0.58,0.75-1.31,1.38-2.15,1.86
					c0,0,0,0.01-0.01,0c-0.27,0.16-0.56,0.3-0.86,0.42c-0.06,0.02-0.12,0.05-0.18,0.07c-6.36,2.54-19.42,5.53-38.9-0.47
					c-3.21-0.99-5.36-4.02-5.26-7.38c0.13-4.79,0.44-12.26,1.24-20.7c0.27-2.94,0.6-5.99,1-9.09c1-7.7,2.41-15.69,4.43-22.86
					c2.31-8.21,9.91-13.8,18.43-13.8c8.94,0,16.69,6.15,18.71,14.86c2.06,8.88,4.29,21.09,5.06,34.82
					C181.255,276.461,181.325,282.501,181.025,288.671z"/>
				<path style="fill:#E52E44;" d="M181.025,288.671c-0.14,2.9-1.94,5.48-4.63,6.57c-0.06,0.02-0.12,0.05-0.18,0.07
					c-5.9-9.03-18.02-31.74-8.02-53.76c0,0,2.61,21.81,12.73,29.14C181.255,276.461,181.325,282.501,181.025,288.671z"/>
				<path style="fill:#E52E44;" d="M163.305,298.171c-6.75,0.53-15.42-0.08-25.99-3.33c-3.21-0.99-5.36-4.02-5.26-7.38
					c0.13-4.79,0.44-12.26,1.24-20.7c0.27-2.94,0.6-5.99,1-9.09c1-7.7,2.41-15.69,4.43-22.86c2.31-8.21,9.91-13.8,18.43-13.8
					c1.54,0,3.04,0.18,4.48,0.54c-6.58,1.57-12.02,6.54-13.91,13.26c-2.02,7.17-3.43,15.16-4.43,22.86c-0.4,3.1-0.73,6.15-1,9.09
					c-0.8,8.44-1.11,15.91-1.24,20.7c-0.1,3.36,2.05,6.39,5.26,7.38C152.665,296.801,158.325,297.791,163.305,298.171z"/>
			</g>
			<g>
				<path style="fill:#FC4250;" d="M169.098,245.14v22.44c0,9.465,6.239,17.888,15.365,20.399c4.343,1.195,9.32,2.587,14.628,2.587
					c0,0,0.253,4.783-6.885,8.077c-4.102,1.893-8.795,2.069-13.107,0.724c-0.748-0.233-1.558-0.494-2.417-0.78
					c-13.583-4.536-22.751-17.249-22.751-31.57V245.14c0-4.188,3.395-7.583,7.583-7.583l0,0
					C165.703,237.557,169.098,240.952,169.098,245.14z"/>
				<path style="fill:#E52E44;" d="M197.935,294.041c-0.93,1.47-2.64,3.18-5.73,4.6c-4.1,1.9-8.79,2.07-13.11,0.73
					c-0.74-0.24-1.55-0.5-2.41-0.78c-13.59-4.54-22.75-17.25-22.75-31.57v-21.88c0-2.9,1.62-5.42,4.01-6.69
					c-0.57,1.06-0.89,2.27-0.89,3.56v21.88c0,14.32,9.17,27.04,22.75,31.57c0.86,0.29,1.67,0.55,2.42,0.78
					c4.31,1.35,9,1.17,13.11-0.72C196.345,295.051,197.205,294.561,197.935,294.041z"/>
			</g>
		</g>
	</g>
	<g>
		<g>
			<path style="fill:#FABC4B;" d="M400.633,416.107l-12.725,19.01c-2.038,3.048-5.279,4.879-8.722,5.213
				c-2.004,0.198-4.072-0.112-6.011-0.984l-7.775-3.497c-4.18-1.885-6.907-6.019-6.992-10.613l-0.485-26.212l13.353,5.34
				L400.633,416.107z"/>
			<path style="fill:#F7B141;" d="M368.712,437.34l-3.31-1.49c-4.18-1.885-6.907-6.019-6.992-10.613l-0.485-26.212l6.42,2.573
				l0.491,26.366C364.899,431.533,366.326,434.869,368.712,437.34z"/>
			<path style="fill:#FFC569;" d="M400.633,416.107l-12.725,19.01c-2.038,3.048-5.279,4.879-8.722,5.213
				c-4.484-2.342-7.362-6.959-7.462-12.069l-0.448-23.897L400.633,416.107z"/>
			<path style="fill:#FF8D9E;" d="M400.633,416.107c-0.407,0.956-1.172,1.711-2.229,2.268c-4.256,2.255-13.283,1.357-22.671-2.63
				c-8.906-3.784-15.578-9.252-17.387-13.764c-0.567-1.421-0.648-2.752-0.16-3.897c2.024-4.779,13.174-4.622,24.9,0.352
				C394.813,403.42,402.667,411.328,400.633,416.107z"/>
			<path style="fill:#F76378;" d="M398.405,418.375c-4.256,2.255-13.283,1.357-22.671-2.63c-8.906-3.784-15.578-9.252-17.387-13.764
				c4.256-2.255,13.283-1.367,22.671,2.62C389.924,408.385,396.596,413.863,398.405,418.375z"/>
		</g>
		<g>
			<g>
				<path style="fill:#FC4250;" d="M375.327,415.394c0,0-38.586-9.874-19.749-48.905
					C355.578,366.489,389.82,378.792,375.327,415.394z"/>
				<path style="fill:#E52E44;" d="M377.244,409.755c-0.511,1.814-1.146,3.691-1.913,5.638c0,0-36.631-9.37-21.089-45.946
					C344.892,400.214,375.019,409.147,377.244,409.755z"/>
				<path style="fill:#FF5065;" d="M358.551,369.798c0,0,20.53,10.116,16.444,34.441
					C374.995,404.239,347.809,395.185,358.551,369.798z"/>
			</g>
			<g>
				<path style="fill:#FC4250;" d="M373.061,414.486c0,0,16.43-42.406,58.125-15.755
					C431.186,398.732,412.593,435.885,373.061,414.486z"/>
				<path style="fill:#E52E44;" d="M415.217,415.766c-9.575,5.891-23.543,8.798-42.156-1.277c0,0,7.136-18.424,23.948-23.353
					c-11.075,7.166-15.903,19.641-15.903,19.641C395.045,418.317,406.381,418.583,415.217,415.766z"/>
				<path style="fill:#FF5065;" d="M388.497,408.057c0,0,5.434-27.493,39.699-8.705
					C428.196,399.353,420.176,422.853,388.497,408.057z"/>
			</g>
			<g>
				<path style="fill:#FC4250;" d="M374.805,414.483c0,0,40.327-6.666,18.739-55.136
					C393.544,359.348,352.553,387.288,374.805,414.483z"/>
				<path style="fill:#E52E44;" d="M399.369,390.938c-3.618,20.088-24.569,23.546-24.569,23.546
					c-8.983-10.984-7.654-22.092-2.878-31.432c-1.444,7.139-0.193,14.861,6.075,22.519
					C377.998,405.571,392.387,403.19,399.369,390.938z"/>
				<path style="fill:#FF5065;" d="M392.96,363.531c0,0-27.297,14.374-13.071,37.577
					C379.888,401.108,406.032,396.028,392.96,363.531z"/>
			</g>
		</g>
	</g>
	<g>
		<g>
			<path style="fill:#80CEC8;" d="M373.81,266.094h-3.328v-3.328c0-1.221-0.99-2.211-2.211-2.211s-2.211,0.99-2.211,2.211v3.328
				h-3.328c-1.221,0-2.211,0.99-2.211,2.211c0,1.221,0.99,2.211,2.211,2.211h3.328v3.328c0,1.221,0.99,2.211,2.211,2.211
				s2.211-0.99,2.211-2.211v-3.328h3.328c1.221,0,2.211-0.99,2.211-2.211C376.021,267.084,375.031,266.094,373.81,266.094z"/>
			<path style="fill:#80CEC8;" d="M455.715,355.32h-3.328v-3.328c0-1.221-0.99-2.211-2.211-2.211c-1.221,0-2.211,0.99-2.211,2.211
				v3.328h-3.328c-1.221,0-2.211,0.99-2.211,2.211c0,1.221,0.99,2.211,2.211,2.211h3.328v3.328c0,1.221,0.99,2.211,2.211,2.211
				c1.221,0,2.211-0.99,2.211-2.211v-3.328h3.328c1.221,0,2.211-0.99,2.211-2.211C457.926,356.31,456.936,355.32,455.715,355.32z"/>
			<path style="fill:#80CEC8;" d="M119.763,337.859h-3.328v-3.328c0-1.221-0.99-2.211-2.211-2.211c-1.221,0-2.211,0.99-2.211,2.211
				v3.328h-3.328c-1.221,0-2.211,0.99-2.211,2.211c0,1.221,0.99,2.211,2.211,2.211h3.328v3.328c0,1.221,0.99,2.211,2.211,2.211
				c1.221,0,2.211-0.99,2.211-2.211v-3.328h3.328c1.221,0,2.211-0.99,2.211-2.211C121.974,338.849,120.984,337.859,119.763,337.859z
				"/>
			<path style="fill:#80CEC8;" d="M393.705,69.186h-3.328v-3.328c0-1.221-0.99-2.211-2.211-2.211s-2.211,0.99-2.211,2.211v3.328
				h-3.328c-1.221,0-2.211,0.99-2.211,2.211s0.99,2.211,2.211,2.211h3.328v3.328c0,1.221,0.99,2.211,2.211,2.211
				s2.211-0.99,2.211-2.211v-3.328h3.328c1.221,0,2.211-0.99,2.211-2.211S394.926,69.186,393.705,69.186z"/>
			<path style="fill:#80CEC8;" d="M176.914,106.999h-5.073v-5.073c0-1.861-1.509-3.37-3.37-3.37s-3.37,1.509-3.37,3.37v5.073h-5.073
				c-1.861,0-3.37,1.509-3.37,3.37s1.509,3.37,3.37,3.37h5.073v5.073c0,1.861,1.509,3.37,3.37,3.37s3.37-1.509,3.37-3.37v-5.073
				h5.073c1.861,0,3.37-1.509,3.37-3.37S178.775,106.999,176.914,106.999z"/>
			<path style="fill:#80CEC8;" d="M154.447,126.312h-3.328v-3.328c0-1.221-0.99-2.211-2.211-2.211c-1.221,0-2.211,0.99-2.211,2.211
				v3.328h-3.328c-1.221,0-2.211,0.99-2.211,2.211s0.99,2.211,2.211,2.211h3.328v3.328c0,1.221,0.99,2.211,2.211,2.211
				c1.221,0,2.211-0.99,2.211-2.211v-3.328h3.328c1.221,0,2.211-0.99,2.211-2.211S155.668,126.312,154.447,126.312z"/>
			<path style="fill:#80CEC8;" d="M442.878,337.021h-4.588v-4.588c0-1.684-1.365-3.048-3.048-3.048
				c-1.684,0-3.048,1.365-3.048,3.048v4.588h-4.588c-1.684,0-3.048,1.365-3.048,3.048c0,1.684,1.365,3.048,3.048,3.048h4.588v4.588
				c0,1.684,1.365,3.048,3.048,3.048c1.684,0,3.048-1.365,3.048-3.048v-4.588h4.588c1.684,0,3.048-1.365,3.048-3.048
				C445.926,338.386,444.562,337.021,442.878,337.021z"/>
			<path style="fill:#80CEC8;" d="M68.922,240.082h-4.588v-4.588c0-1.684-1.365-3.048-3.048-3.048c-1.684,0-3.048,1.365-3.048,3.048
				v4.588h-4.588c-1.684,0-3.048,1.365-3.048,3.048c0,1.684,1.365,3.048,3.048,3.048h4.588v4.588c0,1.684,1.365,3.048,3.048,3.048
				c1.684,0,3.048-1.365,3.048-3.048v-4.588h4.588c1.684,0,3.048-1.365,3.048-3.048C71.97,241.447,70.605,240.082,68.922,240.082z"
				/>
		</g>
	</g>
</g>
<g id="Layer_3">
	<g>
		<g>
			<g id="XMLID_319_">
				<g id="XMLID_338_">
					<path id="XMLID_346_" style="fill:#FFFFFF;" d="M260.104,465.465c-0.432,0.443-0.803,0.931-1.108,1.453l-0.465-0.241
						c-0.067-0.298-0.349-0.503-0.659-0.466c-0.331,0.039-0.568,0.339-0.529,0.67c0.039,0.331,0.339,0.568,0.67,0.529
						c0.066-0.008,0.127-0.026,0.184-0.052l0.451,0.234c-0.251,0.554-0.433,1.139-0.539,1.744l0.747,0.132
						c0.23-1.306,0.85-2.507,1.792-3.473L260.104,465.465z"/>
					<path id="XMLID_345_" style="fill:#FFFFFF;" d="M265.592,463.163c-0.171,0-0.341,0.006-0.51,0.017l-0.074-0.626
						c0.188-0.149,0.296-0.389,0.266-0.645c-0.046-0.393-0.402-0.674-0.795-0.628c-0.393,0.046-0.674,0.402-0.628,0.795
						c0.03,0.254,0.189,0.461,0.404,0.564l0.074,0.624c-0.714,0.116-1.403,0.332-2.06,0.646l0.327,0.684
						c0.934-0.447,1.942-0.673,2.995-0.673c0.496,0,0.993,0.053,1.475,0.158l0.161-0.741
						C266.692,463.222,266.142,463.163,265.592,463.163z"/>
					<path id="XMLID_344_" style="fill:#FFFFFF;" d="M272.194,465.711c0.331-0.04,0.566-0.341,0.526-0.672
						c-0.04-0.331-0.341-0.566-0.672-0.526c-0.309,0.038-0.535,0.304-0.53,0.609l-0.416,0.363c-0.418-0.43-0.889-0.813-1.408-1.139
						l-0.404,0.641c1.134,0.715,2.021,1.726,2.563,2.925l0.69-0.313c-0.251-0.554-0.567-1.072-0.942-1.545l0.402-0.351
						C272.065,465.716,272.129,465.719,272.194,465.711z"/>
					<path id="XMLID_343_" style="fill:#FFFFFF;" d="M265.044,473.372c-0.386,0.023-0.775,0.035-1.157,0.035
						c-0.88,0-1.733-0.061-2.478-0.179c-0.39-0.062-0.846-0.155-1.27-0.292c1.046,1.861,3.069,3.125,5.388,3.125
						c2.855,0,5.262-1.916,5.95-4.504c-0.682,0.449-1.505,0.825-2.459,1.123C267.839,473.047,266.463,473.286,265.044,473.372z"/>
					<path id="XMLID_339_" style="fill:#FFFFFF;" d="M265.592,464.68c-3.352,0-6.08,2.666-6.08,5.943
						c0,0.426,0.046,0.849,0.137,1.261c0.673,0.483,2.706,0.89,5.348,0.731c2.879-0.173,5.297-0.957,6.672-2.159
						c-0.006-0.195-0.021-0.39-0.045-0.582C271.244,466.913,268.65,464.68,265.592,464.68z M263.432,471.194
						c-1.02,0-1.85-0.83-1.85-1.85c0-1.02,0.83-1.85,1.85-1.85c1.02,0,1.85,0.83,1.85,1.85
						C265.282,470.365,264.452,471.194,263.432,471.194z M268.17,470.286c-0.75,0-1.36-0.61-1.36-1.36s0.61-1.361,1.36-1.361
						c0.75,0,1.361,0.61,1.361,1.361S268.92,470.286,268.17,470.286z"/>
				</g>
				<path id="XMLID_336_" style="fill:#FFFFFF;" d="M281.595,466.547c-0.295-0.116-0.805-0.309-1.382-0.237
					c-0.551,0.069-0.844,0.341-0.844,1.007v0.866h2.228v1.717h-2.228v5.455h-1.932v-5.455h-1.34v-1.717h1.34v-0.888
					c0-1.68,0.896-2.783,2.568-2.783c0.643,0,1.157,0.122,1.59,0.308L281.595,466.547z"/>
				<path id="XMLID_334_" style="fill:#FFFFFF;" d="M286.298,469.879c-0.177-0.03-0.358-0.046-0.526-0.046
					c-0.896,0-1.51,0.548-1.51,1.614v3.908h-1.932v-7.172h1.873v0.785c0.451-0.673,1.14-0.977,2.021-0.977
					c0.414,0,0.848,0.128,1.094,0.337L286.298,469.879z"/>
				<path id="XMLID_331_" style="fill:#FFFFFF;" d="M293.965,471.757c0,0.222-0.015,0.489-0.037,0.651h-5.085
					c0.207,1.036,0.933,1.488,1.843,1.488c0.622,0,1.295-0.252,1.813-0.688l1.133,1.243c-0.814,0.748-1.85,1.088-3.057,1.088
					c-2.198,0-3.723-1.495-3.723-3.753c0-2.258,1.48-3.797,3.627-3.797C292.544,467.99,293.958,469.522,293.965,471.757z
					 M288.851,471.091h3.175c-0.177-0.918-0.733-1.436-1.562-1.436C289.554,469.655,289.021,470.203,288.851,471.091z"/>
				<path id="XMLID_328_" style="fill:#FFFFFF;" d="M301.618,471.757c0,0.222-0.015,0.489-0.037,0.651h-5.085
					c0.207,1.036,0.933,1.488,1.843,1.488c0.622,0,1.295-0.252,1.814-0.688l1.132,1.243c-0.814,0.748-1.85,1.088-3.057,1.088
					c-2.198,0-3.723-1.495-3.723-3.753c0-2.258,1.48-3.797,3.627-3.797C300.197,467.99,301.611,469.522,301.618,471.757z
					 M296.504,471.091h3.175c-0.178-0.918-0.733-1.436-1.562-1.436C297.207,469.655,296.674,470.203,296.504,471.091z"/>
				<path id="XMLID_325_" style="fill:#FFFFFF;" d="M309.964,471.764c0,2.154-1.495,3.775-3.471,3.775
					c-0.962,0-1.643-0.378-2.109-0.933v3.708h-1.924v-10.133h1.887v0.792c0.466-0.585,1.155-0.984,2.139-0.984
					C308.469,467.99,309.964,469.61,309.964,471.764z M304.287,471.764c0,1.132,0.748,1.976,1.843,1.976
					c1.14,0,1.85-0.881,1.85-1.976c0-1.095-0.71-1.976-1.85-1.976C305.035,469.788,304.287,470.632,304.287,471.764z"/>
				<path id="XMLID_322_" style="fill:#FFFFFF;" d="M313.068,465.836c0,0.696-0.54,1.229-1.236,1.229
					c-0.696,0-1.229-0.533-1.229-1.229c0-0.696,0.533-1.243,1.229-1.243C312.527,464.592,313.068,465.14,313.068,465.836z
					 M312.809,475.354h-1.932v-7.172h1.932V475.354z"/>
				<path id="XMLID_320_" style="fill:#FFFFFF;" d="M316.032,470.736l2.701-2.554h2.368l-3.479,3.375l3.501,3.797h-2.376
					l-2.716-2.901v2.901H314.1v-10.658h1.932V470.736z"/>
			</g>
			<g>
				<path style="fill:#FFFFFF;" d="M184.412,475.289v-1.055c-0.527,0.718-1.391,1.23-2.387,1.23c-1.846,0-3.149-1.406-3.149-3.706
					c0-2.256,1.289-3.721,3.149-3.721c0.952,0,1.816,0.469,2.387,1.245v-3.765h1.099v9.77H184.412z M184.412,473.37v-3.208
					c-0.395-0.615-1.245-1.143-2.124-1.143c-1.421,0-2.27,1.172-2.27,2.739c0,1.567,0.85,2.724,2.27,2.724
					C183.168,474.483,184.017,473.986,184.412,473.37z"/>
				<path style="fill:#FFFFFF;" d="M186.932,471.744c0-2.051,1.465-3.706,3.486-3.706c2.139,0,3.398,1.67,3.398,3.794v0.279h-5.727
					c0.088,1.333,1.025,2.446,2.549,2.446c0.805,0,1.626-0.322,2.182-0.894l0.527,0.718c-0.703,0.703-1.655,1.084-2.812,1.084
					C188.44,475.465,186.932,473.956,186.932,471.744z M190.403,468.947c-1.509,0-2.256,1.274-2.314,2.358h4.643
					C192.718,470.25,192.015,468.947,190.403,468.947z"/>
				<path style="fill:#FFFFFF;" d="M194.607,474.351l0.571-0.791c0.469,0.542,1.362,1.011,2.329,1.011
					c1.084,0,1.67-0.513,1.67-1.216c0-1.714-4.38-0.659-4.38-3.281c0-1.098,0.952-2.036,2.636-2.036
					c1.201,0,2.051,0.454,2.622,1.026l-0.513,0.762c-0.424-0.513-1.201-0.894-2.109-0.894c-0.967,0-1.567,0.483-1.567,1.113
					c0,1.552,4.38,0.527,4.38,3.281c0,1.187-0.952,2.138-2.783,2.138C196.306,475.465,195.325,475.113,194.607,474.351z"/>
				<path style="fill:#FFFFFF;" d="M201.477,466.471c0-0.41,0.337-0.747,0.732-0.747c0.41,0,0.747,0.337,0.747,0.747
					c0,0.41-0.337,0.732-0.747,0.732C201.814,467.203,201.477,466.881,201.477,466.471z M201.667,475.289v-7.075h1.099v7.075
					H201.667z"/>
				<path style="fill:#FFFFFF;" d="M204.582,477.105l0.556-0.82c0.586,0.703,1.289,0.967,2.3,0.967c1.172,0,2.27-0.571,2.27-2.124
					v-1.011c-0.513,0.718-1.377,1.26-2.373,1.26c-1.845,0-3.149-1.377-3.149-3.662c0-2.27,1.289-3.677,3.149-3.677
					c0.952,0,1.802,0.469,2.373,1.245v-1.069h1.098v6.87c0,2.344-1.641,3.076-3.369,3.076
					C206.237,478.16,205.417,477.926,204.582,477.105z M209.709,473.253v-3.091c-0.381-0.615-1.23-1.143-2.109-1.143
					c-1.421,0-2.27,1.128-2.27,2.695c0,1.553,0.849,2.695,2.27,2.695C208.478,474.41,209.328,473.868,209.709,473.253z"/>
				<path style="fill:#FFFFFF;" d="M217.413,475.289v-4.629c0-1.245-0.63-1.641-1.582-1.641c-0.865,0-1.685,0.527-2.095,1.099v5.17
					h-1.099v-7.075h1.099v1.025c0.498-0.586,1.464-1.201,2.519-1.201c1.48,0,2.256,0.747,2.256,2.285v4.966H217.413z"/>
				<path style="fill:#FFFFFF;" d="M219.932,471.744c0-2.051,1.465-3.706,3.486-3.706c2.139,0,3.398,1.67,3.398,3.794v0.279h-5.727
					c0.088,1.333,1.025,2.446,2.549,2.446c0.806,0,1.626-0.322,2.183-0.894l0.527,0.718c-0.703,0.703-1.655,1.084-2.812,1.084
					C221.441,475.465,219.932,473.956,219.932,471.744z M223.404,468.947c-1.509,0-2.256,1.274-2.314,2.358h4.643
					C225.718,470.25,225.015,468.947,223.404,468.947z"/>
				<path style="fill:#FFFFFF;" d="M233.35,475.289v-1.055c-0.527,0.718-1.392,1.23-2.388,1.23c-1.846,0-3.149-1.406-3.149-3.706
					c0-2.256,1.289-3.721,3.149-3.721c0.952,0,1.817,0.469,2.388,1.245v-3.765h1.098v9.77H233.35z M233.35,473.37v-3.208
					c-0.396-0.615-1.245-1.143-2.124-1.143c-1.421,0-2.27,1.172-2.27,2.739c0,1.567,0.849,2.724,2.27,2.724
					C232.105,474.483,232.954,473.986,233.35,473.37z"/>
				<path style="fill:#FFFFFF;" d="M239.692,475.289v-9.77h1.098v3.765c0.572-0.776,1.421-1.245,2.388-1.245
					c1.845,0,3.149,1.465,3.149,3.721c0,2.299-1.304,3.706-3.149,3.706c-0.996,0-1.86-0.513-2.388-1.23v1.055H239.692z
					 M242.9,474.483c1.436,0,2.285-1.157,2.285-2.724c0-1.568-0.85-2.739-2.285-2.739c-0.864,0-1.728,0.527-2.109,1.143v3.208
					C241.171,473.986,242.036,474.483,242.9,474.483z"/>
				<path style="fill:#FFFFFF;" d="M247.528,477.061c0.161,0.073,0.425,0.117,0.601,0.117c0.483,0,0.805-0.161,1.055-0.747
					l0.469-1.069l-2.959-7.148h1.187l2.358,5.8l2.344-5.8h1.201l-3.545,8.51c-0.425,1.025-1.143,1.421-2.08,1.435
					c-0.234,0-0.601-0.044-0.805-0.103L247.528,477.061z"/>
			</g>
		</g>
	</g>
</g>
</svg>
