<?xml version="1.0" encoding="utf-8"?>
<!-- Generator: Adobe Illustrator 27.5.0, SVG Export Plug-In . SVG Version: 6.00 Build 0)  -->
<svg version="1.1" xmlns="http://www.w3.org/2000/svg" xmlns:xlink="http://www.w3.org/1999/xlink" x="0px" y="0px"
	 viewBox="0 0 500 500" style="enable-background:new 0 0 500 500;" xml:space="preserve">
<g id="BACKGROUND">

		<rect x="0.238" y="0.063" transform="matrix(-1 -1.224647e-16 1.224647e-16 -1 500.4768 500.125)" style="fill:#FFFFFF;" width="500" height="500"/>
</g>
<g id="OBJECTS">

		<ellipse transform="matrix(0.7071 -0.7071 0.7071 0.7071 -92.5007 245.6193)" style="opacity:0.51;fill:#D8DAF2;" cx="250.238" cy="234.468" rx="214.424" ry="214.424"/>
	<g>
		<path style="fill:#7A7BAA;" d="M121.041,398.885c-6.295-1.929-12.512-4.253-18.597-6.896c3.453-1.545,6.138-5.028,7.538-8.353
			c2.756-6.544,1.516-13.894,0.375-20.654c-0.074-0.437-0.627-0.63-0.987-0.432c-10.086,5.549-10.676,17.482-10.772,27.735
			c-3.846-1.778-7.622-3.701-11.324-5.74c4.51-1.31,7.603-6.172,8.739-10.459c1.785-6.739-0.279-13.741-2.204-20.203
			c-0.111-0.372-0.612-0.704-0.987-0.432c-9.767,7.068-8.451,19.606-7.228,30.143c-2.596-1.466-5.163-2.975-7.669-4.563
			c-1.736-1.1-3.449-2.236-5.144-3.398c4.224-1.597,7.041-6.331,8.033-10.499c1.614-6.787-0.616-13.724-2.706-20.14
			c-0.169-0.519-0.712-0.647-1.129-0.328c-9.237,7.048-7.892,19.153-6.459,29.362c-2.896-2.058-5.729-4.203-8.488-6.441
			c2.752-2.393,4.415-6.246,4.952-9.659c1.088-6.921-1.73-13.684-4.329-19.942c-0.176-0.423-0.769-0.432-1.066-0.166
			c-7.327,6.563-6.848,16.109-5.176,24.997c-0.214-0.19-0.43-0.377-0.643-0.568c0.084-0.15,0.043-0.345-0.095-0.447
			c0.113-0.151,0.161-0.348,0.079-0.585c-3.47-9.94-7.689-22.032-19.543-24.141c-0.523-0.093-0.929,0.288-0.843,0.82
			c1.034,6.382,2.152,13.202,6.249,18.438c2.762,3.53,7.457,6.707,12.145,6.376c1.047,0.949,2.12,1.87,3.191,2.792
			c0.094,0.444,0.189,0.885,0.285,1.323c-9.398-2.854-20.072-5.171-27.979,2.257c-0.307,0.288-0.276,0.871,0.119,1.076
			c5.974,3.109,12.477,6.5,19.425,6.02c4.684-0.323,10.321-2.618,12.264-7.244c2.989,2.417,6.058,4.732,9.203,6.943
			c-10.205-0.331-21.994-0.175-27.937,9.591c-0.218,0.359-0.035,0.913,0.4,1.006c6.811,1.45,14.254,3.022,20.982,0.375
			c3.939-1.55,8.12-4.862,9.096-9.203c1.409,0.953,2.826,1.893,4.263,2.803c2.023,1.281,4.074,2.496,6.14,3.678
			c-10.058,1.609-21.441,4.017-25.41,14.693c-0.156,0.421,0.239,0.855,0.647,0.863c6.527,0.133,13.613,0.284,19.525-2.934
			c3.918-2.133,7.891-6.244,8.274-10.931c3.879,2.11,7.823,4.067,11.847,5.842c-9.844,2.825-21.151,6.537-23.827,17.724
			c-0.092,0.384,0.188,0.91,0.647,0.863c6.547-0.67,13.585-1.369,19.105-5.305c3.706-2.643,7.182-7.32,6.861-12.112
			c6.462,2.705,13.097,5.016,19.927,6.89C121.346,399.868,121.575,399.049,121.041,398.885z"/>
		<path style="fill:#7A7BAA;" d="M103.734,338.532c-4.371-2.304-8.629-4.888-12.746-7.688c2.762-0.655,5.229-2.848,6.727-5.103
			c2.948-4.439,3.063-10.032,3.168-15.176c0.007-0.333-0.374-0.553-0.667-0.457c-8.213,2.679-10.319,11.395-11.826,18.941
			c-2.586-1.849-5.101-3.796-7.545-5.817c3.508-0.335,6.47-3.486,7.907-6.488c2.259-4.719,1.718-10.171,1.204-15.204
			c-0.03-0.29-0.353-0.604-0.667-0.457c-8.191,3.844-8.977,13.273-9.55,21.213c-1.709-1.445-3.39-2.916-5.015-4.438
			c-1.126-1.054-2.23-2.131-3.317-3.226c3.338-0.586,6.078-3.682,7.393-6.616c2.141-4.778,1.467-10.205,0.825-15.228
			c-0.052-0.406-0.435-0.577-0.787-0.4c-7.798,3.903-8.501,13.017-8.873,20.744c-1.847-1.923-3.635-3.901-5.357-5.938
			c2.365-1.379,4.13-3.987,5.003-6.428c1.771-4.95,0.64-10.332-0.4-15.31c-0.07-0.337-0.507-0.426-0.763-0.272
			c-6.322,3.813-7.305,10.918-7.316,17.706c-0.131-0.17-0.264-0.338-0.395-0.509c0.083-0.099,0.08-0.248-0.008-0.343
			c0.105-0.095,0.168-0.234,0.14-0.42c-1.167-7.815-2.584-17.321-11.029-20.536c-0.373-0.142-0.725,0.082-0.736,0.487
			c-0.131,4.85-0.261,10.035,2.026,14.47c1.542,2.99,4.559,5.989,8.062,6.402c0.639,0.847,1.301,1.675,1.962,2.505
			c0.007,0.34,0.015,0.679,0.025,1.015c-6.53-3.42-14.076-6.623-20.945-2.253c-0.266,0.169-0.325,0.604-0.063,0.81
			c3.969,3.129,8.289,6.539,13.479,7.159c3.499,0.417,7.977-0.485,10.057-3.624c1.866,2.2,3.804,4.337,5.813,6.408
			c-7.478-1.673-16.192-3.209-21.941,3.16c-0.211,0.234-0.154,0.668,0.154,0.798c4.819,2.023,10.087,4.224,15.418,3.214
			c3.121-0.591,6.668-2.448,7.995-5.512c0.905,0.9,1.819,1.792,2.751,2.663c1.312,1.228,2.654,2.411,4.012,3.572
			c-7.641-0.222-16.371-0.041-20.792,7.275c-0.174,0.288,0.056,0.664,0.356,0.727c4.794,1.012,9.997,2.116,14.806,0.571
			c3.187-1.024,6.693-3.499,7.631-6.901c2.564,2.099,5.199,4.094,7.917,5.966c-7.654,0.704-16.51,1.858-20.05,9.732
			c-0.121,0.27,0.011,0.698,0.356,0.727c4.921,0.423,10.208,0.893,14.829-1.237c3.103-1.43,6.32-4.392,6.755-7.97
			c4.386,2.9,8.954,5.532,13.728,7.87C103.822,339.299,104.105,338.727,103.734,338.532z"/>
		<path style="fill:#7A7BAA;" d="M91.647,283.23c-3.517-2.023-6.933-4.272-10.227-6.695c2.286-0.454,4.377-2.179,5.675-3.984
			c2.554-3.553,2.817-8.14,3.059-12.357c0.016-0.273-0.29-0.465-0.534-0.395c-6.821,1.95-8.813,9.038-10.278,15.185
			c-2.066-1.596-4.071-3.269-6.016-5.002c2.889-0.168,5.415-2.665,6.685-5.085c1.997-3.804,1.718-8.294,1.448-12.44
			c-0.016-0.239-0.271-0.507-0.534-0.395c-6.838,2.906-7.768,10.62-8.479,17.118c-1.358-1.237-2.694-2.496-3.981-3.794
			c-0.892-0.899-1.766-1.816-2.624-2.747c2.757-0.38,5.099-2.837,6.267-5.205c1.901-3.856,1.513-8.33,1.138-12.472
			c-0.03-0.335-0.339-0.486-0.633-0.352c-6.517,2.967-7.37,10.424-7.909,16.754c-1.458-1.634-2.865-3.311-4.216-5.035
			c1.982-1.06,3.51-3.146,4.3-5.123c1.603-4.009,0.838-8.459,0.136-12.575c-0.048-0.279-0.403-0.365-0.618-0.246
			c-5.303,2.937-6.325,8.739-6.54,14.308c-0.102-0.144-0.207-0.286-0.308-0.43c0.071-0.079,0.073-0.201,0.004-0.281
			c0.089-0.075,0.145-0.187,0.128-0.341c-0.721-6.448-1.596-14.292-8.429-17.186c-0.302-0.128-0.598,0.045-0.619,0.377
			c-0.254,3.976-0.518,8.227,1.224,11.935c1.175,2.5,3.56,5.053,6.422,5.498c0.499,0.714,1.017,1.414,1.534,2.115
			c-0.004,0.279-0.008,0.558-0.01,0.834c-5.255-3.004-11.35-5.861-17.12-2.483c-0.224,0.131-0.285,0.485-0.076,0.663
			c3.163,2.688,6.604,5.617,10.845,6.282c2.859,0.449,6.56-0.157,8.362-2.669c1.464,1.862,2.991,3.674,4.576,5.434
			c-6.086-1.599-13.19-3.123-18.101,1.929c-0.18,0.186-0.147,0.544,0.103,0.659c3.893,1.806,8.149,3.772,12.555,3.104
			c2.579-0.391,5.546-1.807,6.728-4.281c0.716,0.766,1.438,1.525,2.177,2.269c1.04,1.047,2.105,2.059,3.184,3.053
			c-6.264-0.413-13.433-0.529-17.282,5.341c-0.152,0.231,0.026,0.547,0.27,0.608c3.903,0.975,8.14,2.039,12.133,0.917
			c2.646-0.744,5.598-2.669,6.471-5.432c2.041,1.8,4.142,3.517,6.316,5.135c-6.302,0.346-13.605,1.025-16.748,7.379
			c-0.108,0.218-0.012,0.573,0.27,0.608c4.025,0.496,8.35,1.042,12.206-0.566c2.589-1.079,5.319-3.413,5.784-6.336
			c3.511,2.512,7.181,4.811,11.027,6.874C91.696,283.863,91.946,283.402,91.647,283.23z"/>
		<path style="fill:#7A7BAA;" d="M265.992,398.885c6.295-1.929,12.512-4.253,18.597-6.896c-3.453-1.545-6.138-5.028-7.538-8.353
			c-2.756-6.544-1.516-13.894-0.375-20.654c0.074-0.437,0.627-0.63,0.987-0.432c10.086,5.549,10.676,17.482,10.772,27.735
			c3.846-1.778,7.622-3.701,11.323-5.74c-4.51-1.31-7.603-6.172-8.738-10.459c-1.785-6.739,0.279-13.741,2.204-20.203
			c0.111-0.372,0.612-0.704,0.987-0.432c9.767,7.068,8.452,19.606,7.228,30.143c2.596-1.466,5.163-2.975,7.669-4.563
			c1.736-1.1,3.449-2.236,5.144-3.398c-4.224-1.597-7.041-6.331-8.033-10.499c-1.614-6.787,0.616-13.724,2.706-20.14
			c0.169-0.519,0.712-0.647,1.129-0.328c9.237,7.048,7.893,19.153,6.459,29.362c2.896-2.058,5.729-4.203,8.489-6.441
			c-2.753-2.393-4.415-6.246-4.952-9.659c-1.088-6.921,1.73-13.684,4.329-19.942c0.176-0.423,0.77-0.432,1.066-0.166
			c7.328,6.563,6.848,16.109,5.176,24.997c0.214-0.19,0.43-0.377,0.643-0.568c-0.083-0.15-0.043-0.345,0.095-0.447
			c-0.113-0.151-0.161-0.348-0.079-0.585c3.47-9.94,7.689-22.032,19.543-24.141c0.524-0.093,0.929,0.288,0.843,0.82
			c-1.035,6.382-2.153,13.202-6.249,18.438c-2.762,3.53-7.457,6.707-12.145,6.376c-1.047,0.949-2.12,1.87-3.191,2.792
			c-0.094,0.444-0.189,0.885-0.285,1.323c9.398-2.854,20.072-5.171,27.979,2.257c0.307,0.288,0.276,0.871-0.119,1.076
			c-5.974,3.109-12.477,6.5-19.425,6.02c-4.684-0.323-10.321-2.618-12.264-7.244c-2.99,2.417-6.059,4.732-9.203,6.943
			c10.205-0.331,21.994-0.175,27.937,9.591c0.218,0.359,0.035,0.913-0.4,1.006c-6.811,1.45-14.254,3.022-20.982,0.375
			c-3.939-1.55-8.12-4.862-9.096-9.203c-1.409,0.953-2.826,1.893-4.263,2.803c-2.023,1.281-4.074,2.496-6.14,3.678
			c10.058,1.609,21.441,4.017,25.41,14.693c0.156,0.421-0.239,0.855-0.647,0.863c-6.527,0.133-13.613,0.284-19.525-2.934
			c-3.918-2.133-7.891-6.244-8.274-10.931c-3.879,2.11-7.823,4.067-11.847,5.842c9.844,2.825,21.151,6.537,23.828,17.724
			c0.092,0.384-0.188,0.91-0.647,0.863c-6.547-0.67-13.585-1.369-19.105-5.305c-3.706-2.643-7.182-7.32-6.861-12.112
			c-6.462,2.705-13.097,5.016-19.927,6.89C265.687,399.868,265.458,399.049,265.992,398.885z"/>
		<path style="fill:#7A7BAA;" d="M283.298,338.532c4.371-2.304,8.629-4.888,12.746-7.688c-2.762-0.655-5.229-2.848-6.727-5.103
			c-2.948-4.439-3.063-10.032-3.168-15.176c-0.007-0.333,0.374-0.553,0.667-0.457c8.213,2.679,10.319,11.395,11.826,18.941
			c2.586-1.849,5.101-3.796,7.545-5.817c-3.509-0.335-6.47-3.486-7.907-6.488c-2.259-4.719-1.718-10.171-1.204-15.204
			c0.03-0.29,0.353-0.604,0.667-0.457c8.191,3.844,8.977,13.273,9.55,21.213c1.709-1.445,3.39-2.916,5.015-4.438
			c1.126-1.054,2.23-2.131,3.317-3.226c-3.338-0.586-6.078-3.682-7.393-6.616c-2.14-4.778-1.467-10.205-0.824-15.228
			c0.052-0.406,0.435-0.577,0.787-0.4c7.798,3.903,8.501,13.017,8.873,20.744c1.848-1.923,3.635-3.901,5.357-5.938
			c-2.364-1.379-4.13-3.987-5.003-6.428c-1.771-4.95-0.64-10.332,0.4-15.31c0.07-0.337,0.507-0.426,0.763-0.272
			c6.322,3.813,7.305,10.918,7.316,17.706c0.131-0.17,0.264-0.338,0.395-0.509c-0.083-0.099-0.08-0.248,0.008-0.343
			c-0.105-0.095-0.168-0.234-0.14-0.42c1.167-7.815,2.584-17.321,11.029-20.536c0.373-0.142,0.725,0.082,0.736,0.487
			c0.131,4.85,0.261,10.035-2.026,14.47c-1.542,2.99-4.559,5.989-8.062,6.402c-0.639,0.847-1.302,1.675-1.962,2.505
			c-0.007,0.34-0.016,0.679-0.025,1.015c6.53-3.42,14.076-6.623,20.945-2.253c0.266,0.169,0.325,0.604,0.063,0.81
			c-3.969,3.129-8.289,6.539-13.479,7.159c-3.499,0.417-7.977-0.485-10.057-3.624c-1.866,2.2-3.804,4.337-5.813,6.408
			c7.478-1.673,16.192-3.209,21.941,3.16c0.211,0.234,0.154,0.668-0.154,0.798c-4.819,2.023-10.086,4.224-15.418,3.214
			c-3.121-0.591-6.668-2.448-7.995-5.512c-0.905,0.9-1.819,1.792-2.751,2.663c-1.313,1.228-2.655,2.411-4.012,3.572
			c7.641-0.222,16.371-0.041,20.792,7.275c0.174,0.288-0.057,0.664-0.356,0.727c-4.794,1.012-9.997,2.116-14.807,0.571
			c-3.187-1.024-6.693-3.499-7.631-6.901c-2.564,2.099-5.199,4.094-7.917,5.966c7.654,0.704,16.51,1.858,20.05,9.732
			c0.122,0.27-0.011,0.698-0.356,0.727c-4.921,0.423-10.208,0.893-14.829-1.237c-3.103-1.43-6.32-4.392-6.755-7.97
			c-4.386,2.9-8.954,5.532-13.727,7.87C283.211,339.299,282.927,338.727,283.298,338.532z"/>
	</g>
	<g>

			<rect x="147.837" y="84.979" transform="matrix(-1 -1.224647e-16 1.224647e-16 -1 387.9053 194.9106)" style="fill:#2B153C;" width="92.231" height="24.953"/>
		<g>
			<polygon style="fill:#7280BA;" points="75.325,421.505 297.154,421.505 306.473,414.701 306.473,97.778 84.981,97.778
				75.325,105.916 			"/>

				<rect x="84.981" y="97.778" transform="matrix(-1 -1.224647e-16 1.224647e-16 -1 391.4538 512.4777)" style="fill:#5AA4AB;" width="221.492" height="316.922"/>
			<g>
				<g>

						<rect x="99.356" y="122.838" transform="matrix(1 -0.0037 0.0037 1 -0.949 0.7313)" style="fill:#F7F9F8;" width="194.91" height="267.118"/>
				</g>
			</g>
			<g>
				<rect x="84.981" y="96.96" style="fill:#CFE2F8;" width="221.382" height="317.741"/>
				<path style="fill:#FFFFFF;" d="M270.977,400.065H120.412c-12.841,0-23.348-10.507-23.348-23.348V136.554
					c0-12.841,10.507-23.348,23.348-23.348h150.566c12.841,0,23.348,10.507,23.348,23.348v240.163
					C294.325,389.558,283.819,400.065,270.977,400.065z"/>
				<g style="opacity:0.54;">
					<path style="opacity:0.39;fill:#80DECF;" d="M271.209,189.664H143.795c-4.46,0-8.108-3.953-8.108-8.785l0,0
						c0-4.831,3.649-8.785,8.108-8.785h127.413c4.46,0,8.108,3.953,8.108,8.785l0,0
						C279.317,185.711,275.668,189.664,271.209,189.664z"/>
					<path style="opacity:0.78;fill:#80DECF;" d="M271.209,216.259H143.795c-4.46,0-8.108-3.953-8.108-8.785l0,0
						c0-4.831,3.649-8.785,8.108-8.785h127.413c4.46,0,8.108,3.953,8.108,8.785l0,0
						C279.317,212.306,275.668,216.259,271.209,216.259z"/>
					<path style="opacity:0.39;fill:#80DECF;" d="M271.209,242.855H143.795c-4.46,0-8.108-3.953-8.108-8.785l0,0
						c0-4.831,3.649-8.785,8.108-8.785h127.413c4.46,0,8.108,3.953,8.108,8.785l0,0
						C279.317,238.902,275.668,242.855,271.209,242.855z"/>
					<path style="opacity:0.78;fill:#80DECF;" d="M271.209,269.451H143.795c-4.46,0-8.108-3.953-8.108-8.784l0,0
						c0-4.831,3.649-8.785,8.108-8.785h127.413c4.46,0,8.108,3.953,8.108,8.785l0,0
						C279.317,265.498,275.668,269.451,271.209,269.451z"/>
					<path style="opacity:0.39;fill:#80DECF;" d="M271.209,296.047H143.795c-4.46,0-8.108-3.953-8.108-8.785l0,0
						c0-4.832,3.649-8.785,8.108-8.785h127.413c4.46,0,8.108,3.953,8.108,8.785l0,0
						C279.317,292.094,275.668,296.047,271.209,296.047z"/>
					<path style="opacity:0.78;fill:#80DECF;" d="M271.209,322.643H143.795c-4.46,0-8.108-3.953-8.108-8.785l0,0
						c0-4.832,3.649-8.785,8.108-8.785h127.413c4.46,0,8.108,3.953,8.108,8.785l0,0C279.317,318.69,275.668,322.643,271.209,322.643
						z"/>
					<path style="opacity:0.39;fill:#80DECF;" d="M270.877,349.238H144.126c-4.642,0-8.44-3.798-8.44-8.44v-0.69
						c0-4.642,3.798-8.44,8.44-8.44h126.751c4.642,0,8.44,3.798,8.44,8.44v0.69C279.317,345.441,275.519,349.238,270.877,349.238z"
						/>
					<path style="opacity:0.78;fill:#80DECF;" d="M270.877,375.834H144.126c-4.642,0-8.44-3.798-8.44-8.44v-0.69
						c0-4.642,3.798-8.44,8.44-8.44h126.751c4.642,0,8.44,3.798,8.44,8.44v0.69C279.317,372.036,275.519,375.834,270.877,375.834z"
						/>
				</g>
				<g>
					<path style="opacity:0.39;fill:none;stroke:#80DECF;stroke-width:1.4394;stroke-miterlimit:10;" d="M115.768,189.664h8.249
						c1.418,0,2.578-1.16,2.578-2.578v-12.412c0-1.418-1.16-2.579-2.578-2.579h-8.249c-1.418,0-2.578,1.16-2.578,2.579v12.412
						C113.19,188.503,114.35,189.664,115.768,189.664z"/>
					<path style="opacity:0.78;fill:none;stroke:#80DECF;stroke-width:1.4394;stroke-miterlimit:10;" d="M115.768,216.259h8.249
						c1.418,0,2.578-1.16,2.578-2.578v-12.413c0-1.418-1.16-2.578-2.578-2.578h-8.249c-1.418,0-2.578,1.16-2.578,2.578v12.413
						C113.19,215.099,114.35,216.259,115.768,216.259z"/>
					<path style="opacity:0.39;fill:none;stroke:#80DECF;stroke-width:1.4394;stroke-miterlimit:10;" d="M115.768,242.855h8.249
						c1.418,0,2.578-1.16,2.578-2.578v-12.413c0-1.418-1.16-2.578-2.578-2.578h-8.249c-1.418,0-2.578,1.16-2.578,2.578v12.413
						C113.19,241.695,114.35,242.855,115.768,242.855z"/>
					<path style="opacity:0.78;fill:none;stroke:#80DECF;stroke-width:1.4394;stroke-miterlimit:10;" d="M115.768,269.451h8.249
						c1.418,0,2.578-1.16,2.578-2.578V254.46c0-1.418-1.16-2.578-2.578-2.578h-8.249c-1.418,0-2.578,1.16-2.578,2.578v12.413
						C113.19,268.291,114.35,269.451,115.768,269.451z"/>
					<path style="opacity:0.39;fill:none;stroke:#80DECF;stroke-width:1.4394;stroke-miterlimit:10;" d="M115.768,296.047h8.249
						c1.418,0,2.578-1.16,2.578-2.578v-12.412c0-1.418-1.16-2.578-2.578-2.578h-8.249c-1.418,0-2.578,1.16-2.578,2.578v12.412
						C113.19,294.887,114.35,296.047,115.768,296.047z"/>
					<path style="opacity:0.78;fill:none;stroke:#80DECF;stroke-width:1.4394;stroke-miterlimit:10;" d="M115.768,322.643h8.249
						c1.418,0,2.578-1.16,2.578-2.578v-12.413c0-1.418-1.16-2.578-2.578-2.578h-8.249c-1.418,0-2.578,1.16-2.578,2.578v12.413
						C113.19,321.482,114.35,322.643,115.768,322.643z"/>
					<path style="opacity:0.39;fill:none;stroke:#80DECF;stroke-width:1.4394;stroke-miterlimit:10;" d="M115.768,349.238h8.249
						c1.418,0,2.578-1.16,2.578-2.578v-12.412c0-1.418-1.16-2.579-2.578-2.579h-8.249c-1.418,0-2.578,1.16-2.578,2.579v12.412
						C113.19,348.078,114.35,349.238,115.768,349.238z"/>
					<path style="opacity:0.78;fill:none;stroke:#80DECF;stroke-width:1.4394;stroke-miterlimit:10;" d="M115.768,375.834h8.249
						c1.418,0,2.578-1.16,2.578-2.578v-12.413c0-1.418-1.16-2.578-2.578-2.578h-8.249c-1.418,0-2.578,1.16-2.578,2.578v12.412
						C113.19,374.674,114.35,375.834,115.768,375.834z"/>
				</g>
				<polygon style="fill:#55275B;" points="143.222,156.706 117.616,177.795 110.88,169.712 105.582,174.128 116.707,187.477
					147.606,162.03 				"/>
				<polygon style="fill:#55275B;" points="143.222,236.497 117.616,257.585 110.88,249.503 105.582,253.918 116.707,267.267
					147.606,241.82 				"/>
				<polygon style="fill:#55275B;" points="143.222,342.88 117.616,363.968 110.88,355.886 105.582,360.301 116.707,373.65
					147.606,348.203 				"/>
			</g>
		</g>

			<rect x="152.84" y="84.979" transform="matrix(-1 -1.224647e-16 1.224647e-16 -1 397.9117 194.9106)" style="fill:#37124E;" width="92.231" height="24.953"/>
		<polygon style="fill:#2B153C;" points="152.84,109.932 245.072,109.932 152.84,84.979 		"/>

			<ellipse transform="matrix(0.9736 -0.2283 0.2283 0.9736 -12.4661 47.4145)" style="fill:none;stroke:#37124E;stroke-width:9;stroke-miterlimit:10;" cx="198.742" cy="77.599" rx="15.219" ry="15.219"/>
	</g>
	<g>
		<g>
			<path style="fill:#EDBA85;" d="M394.76,250.516c-0.167-0.217-0.44-0.324-0.711-0.277c-1.22,0.213-4.595,0.806-5.034,0.931
				c-0.377,0.108-2.687-0.077-4.033-0.196c-0.547-0.049-0.972,0.502-0.753,1.005c0.182,0.42,0.516,0.792,1.127,0.755
				c1.356-0.081,3.553-0.065,3.915,1.719c0.983,4.854-4.243,6.989-3.553,8.657c0.003,0.008,0.006,0.015,0.009,0.022
				c0.219,0.508,0.93,0.551,1.245,0.097c0.105-0.152,0.232-0.329,0.377-0.522c0.074-0.099,0.175-0.174,0.286-0.227
				c0.758-0.359,1.949-1.219,2.822-2.644c0.053-0.087,0.125-0.162,0.209-0.219c1.246-0.844,2.089-1.913,2.502-2.704
				c0.359-0.686,1.476-4.411,1.826-5.594c0.067-0.227,0.021-0.472-0.123-0.659L394.76,250.516z"/>
			<g>
				<path style="fill:#49174F;" d="M408.01,116.991c0,0,3.954,6.133-13.042,18.415c-4.874,3.522-18.061,18.065-6.617,32.095
					c5.796,7.106-6.109,15.762-14.608,16.895c-10.949,1.461-14.538-0.216-14.538-0.216c0.812,0.933,3.665-1.827,3.864-2.051
					c1.863-2.092,2.472-4.854,2.772-7.286c0.969-7.835-10.222-3.726-10.191-19.83c0.014-7.199,8.888-9.083,8.892-21.763
					c0.001-3.354,0.359-7.931,2.755-10.827C375.175,112.903,392.787,112.912,408.01,116.991z"/>
			</g>
			<path style="fill:#49174F;" d="M394.063,108.916c-0.031-2.031,18.877,3.635,20.237,4.544c14.851,9.922,2.873,28.33,11.091,43.357
				c6.695,12.24,3.57,22.331-5.092,28.178c-9.414,6.354-26.51-14.168-26.51-14.168S394.066,109.064,394.063,108.916z"/>
			<path style="fill:#2B153C;" d="M371.424,269.617c-0.898,6.38-3.615,42.508-2.021,80.839c1.367,32.888-0.25,59.952-0.25,59.952
				l7.703-0.671c0,0,14.625-54.73,12.409-76.988c4.926-37.64-2.235-66.423-2.235-66.423l-13.014-6.807L371.424,269.617z"/>
			<path style="fill:#37124E;" d="M399.349,250.406c0,0,10.058,18.369,12.145,27.945c2.086,9.577,0.785,107.434-3.128,131.486
				c-4.733,1.366-7.239,2.09-7.239,2.09s-3.828-41.886-8.467-77.783c-3.266-25.277-7.777-47.34-7.968-50.775
				c-4.211-10.849-8.055-18.939-8.055-18.939L399.349,250.406z"/>
			<path style="fill:#21276F;" d="M384.387,278.939l-0.301-2.493c-3.408-0.689-4.788-11.032-4.937-12.23l-0.061-0.488h4.392
				l1.743,14.967l0.802,2.263l-0.819,0.29L384.387,278.939z M380.074,264.596c0.56,4.085,2.013,10.022,3.901,10.904l-1.27-10.904
				H380.074z"/>
			<polygon style="fill:#D9D5F8;" points="401.127,411.927 402.369,436.601 404.666,435.938 408.366,409.837 			"/>
			<path style="fill:#D9D5F8;" d="M376.811,408.561l-5.257,25.551l-3.042-0.051l0.733-23.901
				C369.246,410.16,373.485,408.209,376.811,408.561z"/>
			<polygon style="fill:#704B96;" points="379.56,403.386 377.377,413.516 367.142,413.488 369.11,403.963 			"/>
			<polygon style="fill:#704B96;" points="410.516,403.183 399.519,406.358 399.824,415.771 409.986,412.837 			"/>
			<path style="fill:#CB4F44;" d="M399.161,166.911c0,0-6.606-4.817-14.984,0c-1.714,5.542-2.801,7.634-2.801,7.634l17.785-0.353
				C399.161,174.192,396.806,169.484,399.161,166.911z"/>
			<path style="fill:#E9E9E9;" d="M397.896,173.975l-2.571-1.087h-10.58c0,0-8.293,18.723-1.317,18.577
				c6.976-0.144,14.468-6.116,14.468-6.116V173.975z"/>
			<path style="fill:#E2E2E2;" d="M395.749,174.92c0,0-3.144,9.77-7.636,8.947c-4.491-0.823-3.368-10.978-3.368-10.978l-6.773,5.514
				l-4.129,32.154v47.341c0,0,3.772,4.405,9.756,4.921c5.984,0.516,10.6-3.892,10.963-4.716c0.362-0.823-6.973-27.765-3.414-40.229
				C394.706,205.41,395.749,174.92,395.749,174.92z"/>
			<path style="fill:#D8CAD6;" d="M384.745,172.888c0,0-5.949,26.261-7.284,31.058c-1.335,4.796,1.053,42.176,0.946,47.609
				c-0.107,5.433,0.997,17.379-7.053,21.403c1.512-29.444,4.278-84.037,4.278-84.037l6.82-14.398L384.745,172.888z"/>
			<path style="fill:#E3938E;" d="M369.279,273.872c0,0,6.81-1.448,6.81-11.011c0-9.562,0.26-46.575,1.181-56.322
				c0.92-9.747,7.056-37.781,7.056-37.781l-0.149-1.847c0,0-1.858,5.759-4.14,7.498c-2.282,1.739-4.441,3.371-4.441,3.371
				s-7.393,22.273-6.86,27.489c0.533,5.216,3.368,11.953,3.803,21.298C372.974,235.912,369.062,262.064,369.279,273.872z"/>
			<path style="fill:#AA3E36;" d="M387.858,248.512c4.142-0.219,11.193-3.594,11.491-3.737l-0.377-0.783
				c-0.071,0.034-7.192,3.442-11.16,3.652L387.858,248.512z"/>
			<path style="fill:#BA4740;" d="M382.84,174.318c-1.304,4.835,0.388,9.496,3.78,10.41c3.392,0.915,7.198-2.263,8.502-7.097
				c1.304-4.835-0.388-9.495-3.78-10.41C387.951,166.306,384.144,169.484,382.84,174.318z"/>
			<g>
				<g>
					<path style="fill:#EDBC7E;" d="M393.941,177.547c-4.496,6.581-11.083,5.041-9.827-1.786l0.197-13.794l10.162-1.072
						l0.494,13.117C395.015,175.269,394.651,176.508,393.941,177.547z"/>
					<path style="fill-rule:evenodd;clip-rule:evenodd;fill:#E79B52;" d="M384.295,173.734l10.264-11.382l-0.113-1.91l-10.899,0.645
						l0.582,9.829C384.182,171.814,384.295,173.734,384.295,173.734z"/>
				</g>
				<path style="fill:#E79B52;" d="M386.763,163.192L386.763,163.192c-8.834-0.201-15.166-5.328-14.869-13.405l0.878-23.803
					c0.298-8.076,7.701-14.461,16.534-14.26l0,0c8.834,0.201,21.531,5.919,21.233,13.995l-5.128,23.478
					C402.881,158.323,395.596,163.392,386.763,163.192z"/>
				<path style="fill:#EDBA8D;" d="M383.411,163.6L383.411,163.6c-13.555-0.307-18.295-13.023-14.561-21.499
					c2.139-4.855,0.781-11.998,0.781-11.998c0.299-8.1,7.735-17.909,16.289-17.715l0,0c8.555,0.194,15.247,6.918,14.949,15.018
					C400.869,127.406,403.801,163.551,383.411,163.6z"/>
				<path style="fill:#EDBC7E;" d="M384.154,163.601L384.154,163.601c-13.555-0.307-18.295-13.024-14.561-21.499
					c2.139-4.855,0.781-11.998,0.781-11.998c0.299-8.1,7.735-17.91,16.29-17.716l0,0c8.555,0.194,15.247,6.918,14.949,15.018
					C401.613,127.407,404.544,163.551,384.154,163.601z"/>
				<path style="fill:#E59056;" d="M401.725,134.336c-3.588-0.953-7.094-2.27-10.724-3.065c-4.609-1.008-9.512-1.086-14.218-1.099
					c-2.124-0.006-4.248,0.049-6.37,0.159c-0.024-0.145-0.04-0.227-0.04-0.227c0.299-8.1,7.735-17.91,16.29-17.716l0,0
					c8.555,0.194,15.247,6.918,14.949,15.018C401.613,127.407,401.843,130.247,401.725,134.336z"/>
				<path style="opacity:0.38;fill:#D38462;" d="M374.111,117.104c0,0-4.996,12.886-5.073,15.979
					C369.039,133.083,369.213,119.537,374.111,117.104z"/>
				<path d="M387.775,139.683c0.059,0.998,0.863,1.762,1.796,1.707c0.933-0.055,1.641-0.909,1.582-1.906
					c-0.059-0.997-0.863-1.761-1.796-1.706C388.425,137.832,387.716,138.685,387.775,139.683z"/>
				<path d="M372.154,138.093c0.059,0.998,0.863,1.762,1.796,1.706c0.933-0.055,1.641-0.909,1.582-1.906
					c-0.059-0.997-0.863-1.761-1.796-1.706C372.803,136.242,372.095,137.096,372.154,138.093z"/>
				<g>
					<path style="fill:none;" d="M414.503,135.9"/>
				</g>
				<g>
					<path style="fill:none;" d="M411.677,130.684"/>
				</g>
				<path style="fill:#3A3A85;" d="M395.557,135.715c-0.912-0.942-2.046-1.548-3.205-1.612c-0.589-0.03-1.147,0.138-1.733,0.132
					c-0.604-0.039-1.21,0.025-1.961-0.117l-0.054-0.133c0.459-0.628,1.113-0.935,1.8-1.172c0.702-0.203,1.467-0.053,2.162,0.159
					c1.444,0.378,2.539,1.47,3.11,2.661L395.557,135.715z"/>
				<path style="fill:#3A3A85;" d="M371.657,131.887c0.37-0.752,1.249-1.419,2.28-1.397c0.49-0.018,1.022,0.009,1.402,0.3
					c0.358,0.319,0.677,0.655,0.763,1.218l-0.084,0.107c-0.557,0.062-0.919-0.056-1.29-0.103c-0.347-0.073-0.595-0.321-0.916-0.437
					c-0.614-0.214-1.367-0.081-2.051,0.402L371.657,131.887z"/>
				<path style="fill:#49174F;" d="M405.116,143.748c0,0,0.201-3.753-2.432-7.849c-3.391-5.273-1.276-10.148-1.865-10.454
					c-0.432-0.224-0.872,6.516-1.329,6.289c-7.004-3.464-18.472-3.464-28.671-2.861c-1.913,0.113-3.078-6.304-3.067-7.375
					c0.125-12.773,14.467-15.261,24.274-14.505c8.854,0.683,26.473,3.418,16.753,31.865"/>
				<g>
					<path style="fill:#E79B52;" d="M403.367,146.931c-1.163,2.332-0.808,4.765,0.794,5.434c1.601,0.669,3.842-0.679,5.005-3.011
						c1.163-2.332,0.807-4.765-0.794-5.434C406.771,143.251,404.53,144.599,403.367,146.931z"/>
					<path style="fill-rule:evenodd;clip-rule:evenodd;fill:#EDBC7E;" d="M405.257,145.994c0.251-0.535,0.571-0.977,1.245-1.16
						c0.675-0.182,1.681,0.096,1.792,2.015c0.111,1.919-1.152,3.658-2.186,3.49c-0.328-0.054-0.533-0.509-0.661-1.106
						c0.607-0.218,0.95-0.958,0.776-1.726c-0.131-0.575-0.518-1.012-0.975-1.168C405.251,146.124,405.257,145.994,405.257,145.994z"
						/>
					<g>
						<g>
							<path style="fill:#F8E766;" d="M406.467,151.871c0.708,0,0.709-1.1,0-1.1C405.759,150.771,405.758,151.871,406.467,151.871
								L406.467,151.871z"/>
						</g>
					</g>
				</g>
				<polygon style="fill:#E79B52;" points="382.2,134.257 376.878,145.908 381.186,146.438 				"/>
				<polygon style="fill:#EAAC60;" points="382.2,134.257 376.878,145.908 379.24,146.199 				"/>
				<path style="fill:#49174F;" d="M405.116,143.748c0,0,5.979,0.032,4.271,8.66c0,0,10.537-26.578,3.971-33.892
					C406.791,111.202,405.116,143.748,405.116,143.748z"/>
				<g>
					<path style="fill:none;" d="M381.041,108.438"/>
				</g>
				<g>
					<path style="fill:#3B2314;" d="M385.455,149.853c0,0-5.616,1.918-10.425,0.536c0.249,1.304,1.88,4.694,1.88,4.694
						S383.615,156.169,385.455,149.853z"/>
					<path style="fill:#FFFFFF;" d="M375.03,150.389l1.306,2.299c0,0,5.52,0.718,8.849-2.749
						C381.467,150.979,377.48,151.077,375.03,150.389z"/>
					<path style="fill:#B9603C;" d="M376.91,155.083c0,0,1.311-1.106,2.562-1.537c1.252-0.431,4.335-0.666,4.335-0.666
						S381.605,155.701,376.91,155.083z"/>
				</g>
			</g>
			<path style="fill:#E3938E;" d="M407.958,190.697l0.451,8.624c0,0-11.175,20.823-11.03,27.56
				c0.145,6.737,4.088,21.548,12.472,36.846c-9.539,7.607-19.165,13.694-22.588-0.867c-3.423-14.56-4.367-47.811-1.831-59.329
				c2.536-11.518,7.916-26.844,7.464-32.168c0.996-0.435,6.266-4.451,6.266-4.451s-0.965,7.338,3.957,12.712
				C405.929,182.692,407.741,186.541,407.958,190.697z"/>
			<path style="fill:#D9D5F8;" d="M406.627,438.755c0,0-0.688-1.607-1.178-2.57c-0.49-0.963-0.887-2.003-0.887-2.003l-2.281,0.659
				c0,0-0.764,3.329-1.559,4.769c-0.795,1.44-2.728,2.992-2.728,2.992s-0.617,2.634,3.642,0.709s4.514-3.003,4.514-3.003
				L406.627,438.755z"/>
			<g>
				<path style="fill:#E3938E;" d="M406.174,437.724c0,0,1.676,2.883,1.167,3.503c-0.38,0.463-1.717,0.83-2.423,1.06
					c-0.706,0.23-1.205,1.713-2.413,2.345c-1.208,0.632-5.697,2.031-6.539,2.146c-0.842,0.114-2.122,0.587-1.693-0.335
					c0.429-0.922,3.721-3.84,3.721-3.84s0.237,0.754,2.811,0.035c2.573-0.719,3.879-2.289,4.247-3.042
					C405.42,438.843,405.824,437.851,406.174,437.724z"/>
				<polygon style="fill:#AE4C8C;" points="407.388,440.454 407.7,443.05 406.916,443.276 405.466,441.704 				"/>
			</g>
			<path style="fill:#EFC573;" d="M372.095,437.866c0,0-0.183-1.738-0.367-2.804c-0.184-1.065-0.257-2.175-0.257-2.175l-2.374-0.044
				c0,0-1.713,2.955-2.897,4.096c-1.184,1.141-3.49,2.054-3.49,2.054s-1.367,2.335,3.27,1.753c4.638-0.582,5.2-1.536,5.2-1.536
				L372.095,437.866z"/>
			<g>
				<path style="fill:#E3938E;" d="M371.966,436.747c0,0,0.751,3.249,0.081,3.691c-0.5,0.33-1.886,0.287-2.628,0.298
					c-0.742,0.011-1.657,1.281-2.997,1.528c-1.341,0.247-6.042,0.259-6.881,0.12c-0.839-0.139-2.201-0.066-1.519-0.82
					c0.682-0.754,4.689-2.571,4.689-2.571s0.004,0.791,2.675,0.863c2.671,0.073,4.382-1.043,4.956-1.653
					C370.916,437.594,371.595,436.765,371.966,436.747z"/>
				<polygon style="fill:#AE4C8C;" points="372.321,439.714 371.853,442.286 371.036,442.271 370.116,440.34 				"/>
			</g>
			<path style="fill:#E3938E;" d="M398.641,175.197c3.321,0.133,7.789,4.293,14.452,14.068c6.663,9.775,13.823,27.068,15.419,32.703
				c1.933,6.825-5.262,9.983-12.042,0.158c-4.544-6.584-11.502-25.808-13.369-30.891
				C401.233,186.15,398.641,175.197,398.641,175.197z"/>
			<g>
				<g>
					<path style="fill:#E3938E;" d="M348.87,230.326c1.731,3.217,6.124,3.734,8.577,1.027c15.886-17.538,24.773-45.403,21.85-51.552
						c-0.09-0.19-0.192-0.367-0.301-0.524c-0.641-0.926-1.594-1.29-2.685-1.026c-4.353,1.052-11.078,13.206-13.767,18.383
						c-4.098,7.888-11.474,21.478-14.057,28.125C347.876,226.329,348.072,228.843,348.87,230.326L348.87,230.326z"/>
					<path style="fill:#E3938E;" d="M309.572,238.071c8.429,1.004,32.49-3.042,36.72-3.389c2.99-0.245,6.956-0.9,9.555-2.683
						c7.976-5.473-0.484-8.845-3.544-8.448c-5.325,0.691-44.9,7.674-44.812,8.122C307.492,231.673,309.205,238.028,309.572,238.071z
						"/>
				</g>
			</g>
		</g>
		<g>
			<g>
				<polygon style="fill:#AEBCD6;" points="292.96,211.537 285.016,228.737 415.784,282.987 423.726,265.787 418.279,263.524
					"/>
				<polygon style="fill:#7280BA;" points="289.166,219.753 414.483,271.742 419.932,274.004 424.363,264.408 293.596,210.159
					"/>
			</g>
			<g>
				<polygon style="fill:#312F58;" points="267.372,210.712 271.714,215.369 273.928,210.571 				"/>
				<polygon style="fill:#E2E2E2;" points="271.714,215.369 284.735,229.345 293.596,210.159 273.928,210.571 				"/>
			</g>
			<g>
				<polygon style="fill:#2B153C;" points="410.06,258.475 401.2,277.664 397.114,275.965 405.975,256.781 				"/>
			</g>
			<polygon style="fill:#BA4740;" points="400.665,278.023 409.842,258.379 425.139,264.737 415.963,284.38 			"/>
		</g>
		<g>
			<path style="fill:#EDBC7E;" d="M304.419,237.609c0,0-5.606-0.199-7.81,0.193c-1.36,0.243-1.929,0.454-1.929,0.454
				s-0.79-2.329,0.019-2.563c0.809-0.232,5.227,0.251,5.227,0.251L304.419,237.609z"/>
			<path style="fill:#EDBC7E;" d="M302.197,233.367c-0.065-0.025-0.143-0.041-0.2-0.07c-1.736-0.885-1.901-3.58-1.674-4.7
				c0.461-2.28-2.065-3.863-2.065-3.863l-0.094,5.931l0.891,2.038l-3.175-2.858c0,0-0.663-2.406-0.424-3.213
				c0.239-0.806,0.64-2.793-1.625-3.709c-0.577,2.487-0.801,3.972-0.801,3.972s0.676,3.009,0.986,3.986
				c-0.593-0.927-2.876-3.666-2.826-3.59c0.059,0.087,0.889-3.267-0.449-4.225c-1.106,1.307-1.627,4.266-1.627,4.266
				s-1.215-3.079-3.172-3.245c-0.047,1.369,0.964,4.329,0.964,4.329s3.833,5.291,4.803,5.793c0.971,0.502,17.908,4.702,17.908,4.702
				s0.399-0.413,0.81-1.004c-0.174-0.137-0.349-0.275-0.524-0.412C307.049,236.704,304.377,235.311,302.197,233.367z"/>
		</g>
		<g>
			<g>
				<path style="fill:#EDBC7E;" d="M394.569,251.418c-1.841,0.039-3.709,0.027-5.498,0.532c-0.704,0.199-1.66,0.337-2.231,0.825
					c-0.328,0.281-0.463,0.722-0.642,1.102c-0.22,0.467-0.456,0.927-0.73,1.364c-0.457,0.727-6.416,6.633-6.604,6.332
					c0,0-1.172-1.873-2.004-1.117c-0.833,0.757,0.414,3.625,1.558,4.169c1.145,0.544,7.583,1.185,9.276-0.194
					c1.692-1.377,7.559-8.922,7.707-9.511c0,0,0.05-0.041,0.143-0.119L394.569,251.418z"/>
				<g>
					<path style="fill:#EDBC7E;" d="M389.071,252.394c-2.552-0.219-5.11-0.339-7.669-0.36c-0.372-0.003-0.762,0.001-1.089,0.223
						c-0.327,0.222-0.559,0.736-0.407,1.161c0.086,0.242,0.273,0.401,0.454,0.538c2.308,1.738,5.15,1.816,7.845,1.845"/>
				</g>
			</g>
			<path style="fill:#E3938E;" d="M419.559,221.511c0,0-3.016,2.765-11.191,12.333c-5.999,7.021-17.234,16.557-17.234,16.557
				l3.824,4.772c0,0,25.771-13.429,33.805-28.281C424.14,222.185,419.559,221.511,419.559,221.511z"/>
		</g>
	</g>
</g>
</svg>
